<svg width="55" height="55" viewBox="0 0 55 55" fill="none" xmlns="http://www.w3.org/2000/svg">
<path d="M4.02832 48.1787H53.1201C53.2911 48.1787 53.455 48.1108 53.5759 47.9899C53.6967 47.8691 53.7646 47.7051 53.7646 47.5342C53.7646 47.3632 53.6967 47.1993 53.5759 47.0784C53.455 46.9576 53.2911 46.8896 53.1201 46.8896H50.4085V11.4657C50.4088 11.2061 50.3061 10.957 50.123 10.773C49.9399 10.5891 49.6912 10.4853 49.4317 10.4844H43.122C42.8625 10.4853 42.6138 10.5891 42.4307 10.773C42.2476 10.957 42.1449 11.2061 42.1451 11.4657V46.8896H38.354V15.9465C38.3543 15.6869 38.2516 15.4378 38.0685 15.2538C37.8853 15.0698 37.6367 14.966 37.3771 14.9652H31.0675C30.8079 14.966 30.5593 15.0699 30.3762 15.2538C30.193 15.4378 30.0904 15.6869 30.0907 15.9465V46.8896H26.2995V20.4271C26.2998 20.1676 26.1971 19.9185 26.014 19.7345C25.8309 19.5505 25.5822 19.4467 25.3227 19.4458H19.013C18.7535 19.4467 18.5048 19.5505 18.3217 19.7345C18.1386 19.9185 18.0359 20.1676 18.0362 20.4271V46.8896H14.245V26.3577C14.2453 26.0981 14.1426 25.849 13.9595 25.665C13.7764 25.4811 13.5278 25.3773 13.2682 25.3764H6.95847C6.69892 25.3773 6.45032 25.4811 6.26722 25.6651C6.08412 25.849 5.98147 26.0981 5.98179 26.3577V46.8896H4.02832C3.62985 46.8895 3.24771 46.7312 2.96577 46.4497C2.68382 46.1681 2.5251 45.7861 2.52441 45.3877V7.46582C2.52441 7.29488 2.45651 7.13094 2.33564 7.01007C2.21476 6.8892 2.05082 6.82129 1.87988 6.82129C1.70894 6.82129 1.545 6.8892 1.42413 7.01007C1.30326 7.13094 1.23535 7.29488 1.23535 7.46582V45.3877C1.23643 46.1279 1.5311 46.8375 2.0547 47.3607C2.57831 47.884 3.28809 48.1781 4.02832 48.1787ZM43.4342 11.7734H49.1194V46.8896H43.4342V11.7734ZM31.3798 16.2542H37.0649V46.8896H31.3798V16.2542ZM19.3252 20.7349H25.0103V46.8896H19.3252V20.7349ZM7.27085 26.6654H12.9559V46.8896H7.27085V26.6654Z" fill="#7140D9"/>
</svg>
