<svg width="55" height="55" viewBox="0 0 55 55" fill="none" xmlns="http://www.w3.org/2000/svg">
<path d="M38.8198 27.6985C42.8997 24.5857 46.2066 20.5737 48.4834 15.9747C50.7602 11.3756 51.9456 6.31342 51.9473 1.18164C51.9473 1.0107 51.8794 0.846762 51.7586 0.725889C51.6377 0.605016 51.4737 0.53711 51.3028 0.53711C43.8838 0.535561 36.6772 3.01372 30.8282 7.57775C28.5703 9.33635 26.5452 11.375 24.8018 13.6447C24.1887 14.0209 23.467 14.1802 22.7525 14.0971C22.038 14.014 21.3721 13.6933 20.8617 13.1865C20.0208 12.3456 18.8804 11.8729 17.6912 11.8723C16.5019 11.8717 15.3611 12.3432 14.5193 13.1832L8.13533 19.4738C8.07456 19.5337 8.02631 19.6051 7.99337 19.6839C7.96044 19.7627 7.94348 19.8472 7.94348 19.9326C7.94348 20.0179 7.96044 20.1024 7.99337 20.1812C8.02631 20.26 8.07456 20.3314 8.13533 20.3914L11.8289 24.0394C12.7612 24.9551 13.9533 25.5608 15.2426 25.7738C16.5319 25.9869 17.8555 25.7969 19.0328 25.2297C19.0307 25.2377 19.0283 25.2454 19.0262 25.2533C18.9966 25.3627 18.9965 25.478 19.0257 25.5875C19.0549 25.697 19.1125 25.7969 19.1927 25.8771L21.0516 27.7363L16.5036 28.7002C16.3901 28.7243 16.2852 28.7785 16.1999 28.8572C16.1146 28.9359 16.0522 29.0362 16.0192 29.1474C15.9862 29.2587 15.9839 29.3768 16.0124 29.4893C16.0409 29.6017 16.0993 29.7044 16.1813 29.7865L18.4694 32.0746C17.953 31.7656 17.3911 31.5401 16.8044 31.4063C16.6177 31.3641 16.4306 31.3311 16.2498 31.3085C16.0235 31.2798 15.7958 31.2645 15.5677 31.2629C14.8134 31.2564 14.0654 31.4009 13.3676 31.6878C12.6699 31.9746 12.0366 32.3981 11.5049 32.9333C10.9559 33.4733 10.5201 34.1173 10.2229 34.8277C9.92571 35.5381 9.77316 36.3006 9.77416 37.0706C9.7741 37.2388 9.83976 37.4003 9.95713 37.5207C10.0745 37.6411 10.2343 37.7109 10.4024 37.7152L10.8884 37.7275C9.94774 39.0297 9.55263 40.6478 9.78726 42.237C9.81645 42.3831 9.89551 42.5146 10.0109 42.6089C10.1263 42.7032 10.2709 42.7544 10.42 42.7539H12.1808C12.3518 42.7539 12.5157 42.686 12.6366 42.5651C12.7575 42.4442 12.8254 42.2803 12.8254 42.1094C12.8254 41.9384 12.7575 41.7745 12.6366 41.6536C12.5157 41.5327 12.3518 41.4648 12.1808 41.4648H11.0067C10.9885 40.6055 11.1771 38.9772 12.7378 37.5999C12.8349 37.5143 12.9039 37.4015 12.9358 37.2761C12.9678 37.1507 12.9612 37.0186 12.9169 36.897C12.8727 36.7754 12.7928 36.67 12.6877 36.5945C12.5826 36.519 12.4571 36.4769 12.3278 36.4738L11.1075 36.4431C11.2454 35.4581 11.7044 34.5462 12.4134 33.8486C12.8211 33.4383 13.3059 33.1126 13.8398 32.89C14.3737 32.6675 14.9463 32.5526 15.5248 32.5519H15.5584C15.661 32.5526 15.7639 32.5581 15.8667 32.5659C15.4731 32.7979 15.1382 33.1175 14.8882 33.4999C14.6381 33.8823 14.4796 34.3172 14.4249 34.7708L14.0552 37.7572C14.044 37.8478 14.0522 37.9398 14.0792 38.027C14.1062 38.1142 14.1515 38.1947 14.2119 38.2632C14.2724 38.3316 14.3467 38.3864 14.43 38.4239C14.5132 38.4615 14.6035 38.4809 14.6948 38.4809C14.7213 38.4809 14.7477 38.4792 14.774 38.476L17.7603 38.1063C18.2142 38.0504 18.6492 37.8908 19.0317 37.64C19.4141 37.3892 19.7338 37.0538 19.9659 36.6598C19.9752 36.7759 19.9815 36.893 19.9817 37.0109C19.9832 37.5967 19.8686 38.177 19.6444 38.7181C19.4203 39.2593 19.091 39.7507 18.6758 40.1639C18.6146 40.2234 18.5658 40.2945 18.5324 40.373C18.4989 40.4516 18.4813 40.536 18.4808 40.6214C18.4802 40.7067 18.4966 40.7914 18.529 40.8704C18.5614 40.9494 18.6091 41.0211 18.6695 41.0815C18.7299 41.1419 18.8016 41.1897 18.8806 41.2221C18.9596 41.2545 19.0442 41.2709 19.1296 41.2703C19.215 41.2697 19.2994 41.2522 19.3779 41.2187C19.4565 41.1852 19.5276 41.1365 19.5871 41.0753C20.2064 40.4566 20.676 39.7045 20.96 38.8764C21.244 38.0484 21.3349 37.1664 21.2258 36.2978C21.2043 36.1181 21.1729 35.9354 21.1327 35.7545C20.9997 35.1586 20.7722 34.5878 20.4589 34.0638L22.6983 36.303C22.779 36.3837 22.8798 36.4415 22.9902 36.4706C23.1006 36.4996 23.2167 36.4987 23.3267 36.4682C23.4367 36.4376 23.5366 36.3783 23.6162 36.2964C23.6957 36.2146 23.7521 36.113 23.7796 36.0022L24.8777 31.5624L26.5494 33.2342C26.6292 33.3139 26.7285 33.3713 26.8374 33.4007C26.9463 33.43 27.061 33.4303 27.1701 33.4015C27.2086 33.3908 27.2468 33.3801 27.2853 33.3693C26.696 34.5518 26.4904 35.8887 26.6971 37.1936C26.9038 38.4985 27.5126 39.7064 28.4385 40.6489L32.0862 44.3652C32.205 44.4942 32.3697 44.5714 32.5448 44.5801C32.72 44.5715 32.8847 44.4943 33.0035 44.3652L39.2909 37.9736C40.1312 37.1303 40.603 35.9884 40.603 34.7979C40.603 33.6075 40.1312 32.4655 39.2909 31.6222C38.7872 31.1137 38.4673 30.4518 38.382 29.7412C38.2967 29.0306 38.4508 28.3118 38.8198 27.6985ZM50.6517 1.83273C50.6125 3.793 50.3934 5.74553 49.9971 7.66573C47.8178 6.45798 46.0186 4.66634 44.8016 2.49219C46.7272 2.09276 48.6855 1.87201 50.6517 1.83273ZM12.7344 23.1222L9.50549 19.9333L15.4269 14.098C16.0266 13.4984 16.84 13.1615 17.6881 13.1615C18.5362 13.1615 19.3496 13.4984 19.9494 14.098C20.4175 14.5635 20.9824 14.9204 21.6038 15.1432C22.2253 15.3661 22.8881 15.4496 23.5454 15.3878C21.8914 17.8417 20.5708 20.5044 19.6181 23.3061C18.6601 24.1517 17.4173 24.6028 16.14 24.5687C14.8628 24.5345 13.6458 24.0177 12.7344 23.1222ZM19.0293 35.6022C18.9385 35.9243 18.7545 36.2124 18.5004 36.4302C18.2464 36.6481 17.9336 36.7861 17.6014 36.8268L15.436 37.0953L15.7046 34.9305C15.7481 34.5918 15.8918 34.2738 16.1172 34.0173C16.3427 33.7608 16.6397 33.5775 16.97 33.491C17.2598 33.4171 17.5639 33.4207 17.8518 33.5016C18.1397 33.5825 18.4012 33.7379 18.61 33.9519C18.8188 34.166 18.9675 34.4313 19.0412 34.7211C19.1149 35.0109 19.111 35.315 19.0298 35.6028L19.0293 35.6022ZM22.8023 34.5841L17.933 29.7149L22.1388 28.8233L23.8129 30.4971L22.8023 34.5841ZM27.1968 32.0585L20.3694 25.2311C20.484 24.8258 20.6069 24.423 20.7382 24.0229C20.742 24.019 20.746 24.0156 20.7499 24.0121L20.7438 24.006C22.2958 19.3068 24.9044 15.0258 28.3692 11.4921C31.834 7.95845 36.0627 5.26602 40.7305 3.62173C41.6417 3.30211 42.564 3.02539 43.4971 2.79157C44.8882 5.43331 47.0516 7.58821 49.6988 8.96897C46.9417 19.9709 38.4644 28.9378 27.1968 32.0585ZM38.3763 37.0537L32.5443 42.972L29.3553 39.7432C28.4467 38.8184 27.9284 37.5796 27.9077 36.2833C27.8871 34.9869 28.3657 33.7323 29.2445 32.779C32.0179 31.8489 34.6559 30.5556 37.0897 28.9327C37.0281 29.5899 37.1117 30.2526 37.3346 30.8739C37.5574 31.4951 37.9142 32.0599 38.3795 32.528C38.9787 33.1289 39.3149 33.943 39.3143 34.7916C39.3137 35.6402 38.9763 36.4538 38.3763 37.0539V37.0537Z" fill="#7140D9"/>
<path d="M16.5655 41.3443C16.2237 41.4252 15.8736 41.4657 15.5224 41.4648H14.5071C14.3361 41.4648 14.1722 41.5327 14.0513 41.6536C13.9305 41.7745 13.8625 41.9384 13.8625 42.1094C13.8625 42.2803 13.9305 42.4442 14.0513 42.5651C14.1722 42.686 14.3361 42.7539 14.5071 42.7539H15.5224C15.9746 42.7547 16.4253 42.7024 16.8652 42.5979C17.0314 42.5581 17.1751 42.4539 17.2645 42.3082C17.3538 42.1625 17.3817 41.9872 17.3419 41.821C17.3021 41.6548 17.1978 41.5111 17.0521 41.4217C16.9064 41.3324 16.7312 41.3045 16.565 41.3443H16.5655Z" fill="#7140D9"/>
<path d="M42.5023 28.0279C42.6524 28.028 42.7977 27.9756 42.9131 27.8798C43.3724 27.4995 43.8279 27.1012 44.2666 26.696C44.3298 26.6388 44.381 26.5697 44.4174 26.4927C44.4537 26.4156 44.4744 26.3321 44.4782 26.247C44.4821 26.1619 44.469 26.0769 44.4398 25.9969C44.4106 25.9169 44.3658 25.8434 44.308 25.7808C44.2503 25.7182 44.1807 25.6677 44.1032 25.6321C44.0258 25.5966 43.9421 25.5768 43.857 25.5738C43.7719 25.5708 43.687 25.5847 43.6073 25.6147C43.5275 25.6447 43.4546 25.6902 43.3925 25.7486C42.9703 26.1382 42.5321 26.5212 42.0905 26.8873C41.9883 26.9719 41.9147 27.086 41.8798 27.2139C41.8449 27.3419 41.8503 27.4775 41.8953 27.6023C41.9403 27.7271 42.0227 27.835 42.1312 27.9112C42.2398 27.9874 42.3693 28.0283 42.5019 28.0282L42.5023 28.0279Z" fill="#7140D9"/>
<path d="M53.1473 11.0516C53.0663 11.0271 52.9812 11.0188 52.897 11.0271C52.8128 11.0355 52.731 11.0604 52.6564 11.1004C52.5818 11.1403 52.5158 11.1946 52.4621 11.2601C52.4085 11.3256 52.3683 11.401 52.3438 11.482C51.8011 13.2755 51.1016 15.0176 50.2531 16.6883C49.9442 17.2966 49.6109 17.9036 49.2626 18.4921C48.8345 19.2152 48.3721 19.9307 47.8876 20.6191C47.1191 21.7102 46.2837 22.7526 45.3862 23.7402C45.2712 23.8667 45.2112 24.0337 45.2194 24.2045C45.2275 24.3752 45.3032 24.5358 45.4297 24.6507C45.5562 24.7657 45.7232 24.8257 45.894 24.8176C46.0647 24.8094 46.2252 24.7337 46.3402 24.6072C47.2735 23.5798 48.1422 22.4956 48.9413 21.3607C49.4451 20.6451 49.9263 19.9009 50.3715 19.1486C50.7339 18.5363 51.0805 17.905 51.4021 17.272C52.2848 15.5337 53.0127 13.721 53.5773 11.855C53.6268 11.6914 53.6093 11.5149 53.5286 11.3642C53.448 11.2136 53.3108 11.1011 53.1473 11.0516Z" fill="#7140D9"/>
<path d="M2.25492 26.9102C2.33956 26.9103 2.42339 26.8937 2.50159 26.8613C2.57979 26.8289 2.65082 26.7814 2.7106 26.7215L3.2042 26.2279C3.32237 26.1065 3.38799 25.9434 3.38685 25.774C3.38571 25.6046 3.31791 25.4424 3.19811 25.3226C3.07832 25.2028 2.91617 25.135 2.74675 25.1338C2.57732 25.1327 2.41426 25.1983 2.29284 25.3164L1.7987 25.81C1.70858 25.9002 1.64722 26.015 1.62236 26.14C1.5975 26.265 1.61027 26.3946 1.65904 26.5123C1.70781 26.6301 1.7904 26.7307 1.89637 26.8016C2.00234 26.8724 2.12692 26.9102 2.25438 26.9102H2.25492Z" fill="#7140D9"/>
<path d="M4.60429 24.8278L6.80977 22.6224C6.86963 22.5626 6.91711 22.4915 6.9495 22.4133C6.9819 22.3351 6.99858 22.2513 6.99858 22.1666C6.99859 22.082 6.98192 21.9982 6.94953 21.92C6.91715 21.8418 6.86967 21.7707 6.80983 21.7109C6.74998 21.651 6.67893 21.6035 6.60073 21.5711C6.52253 21.5387 6.43871 21.5221 6.35407 21.5221C6.26943 21.5221 6.18561 21.5387 6.10741 21.5711C6.02921 21.6035 5.95815 21.651 5.8983 21.7108L3.69293 23.9162C3.63227 23.9759 3.58402 24.0469 3.55098 24.1253C3.51793 24.2037 3.50073 24.2879 3.50037 24.373C3.50002 24.4581 3.51651 24.5424 3.5489 24.6211C3.58129 24.6997 3.62894 24.7712 3.68909 24.8314C3.74925 24.8916 3.82072 24.9392 3.89939 24.9716C3.97806 25.004 4.06236 25.0206 4.14745 25.0202C4.23253 25.0199 4.3167 25.0027 4.39511 24.9697C4.47352 24.9366 4.54461 24.8884 4.60429 24.8278Z" fill="#7140D9"/>
<path d="M2.77005 29.1307C2.89092 29.2515 3.05485 29.3194 3.22579 29.3194C3.39672 29.3194 3.56065 29.2515 3.68152 29.1307L6.27394 26.5382C6.33378 26.4783 6.38126 26.4072 6.41364 26.329C6.44603 26.2508 6.4627 26.167 6.46269 26.0824C6.46269 25.9977 6.44601 25.9139 6.41361 25.8357C6.38122 25.7575 6.33374 25.6865 6.27388 25.6266C6.21403 25.5668 6.14297 25.5193 6.06477 25.4869C5.98656 25.4545 5.90275 25.4379 5.81811 25.4379C5.73346 25.4379 5.64965 25.4545 5.57145 25.4869C5.49325 25.5193 5.4222 25.5668 5.36235 25.6267L2.76994 28.2191C2.71009 28.2789 2.66261 28.35 2.63022 28.4282C2.59783 28.5064 2.58117 28.5902 2.58118 28.6749C2.58119 28.7595 2.59787 28.8434 2.63028 28.9216C2.66269 28.9998 2.71018 29.0708 2.77005 29.1307Z" fill="#7140D9"/>
<path d="M7.08556 25.459C7.1702 25.4591 7.25403 25.4425 7.33223 25.4101C7.41043 25.3777 7.48146 25.3302 7.54124 25.2703L8.49966 24.3119C8.56031 24.2523 8.60856 24.1812 8.64161 24.1028C8.67465 24.0244 8.69185 23.9402 8.69221 23.8551C8.69257 23.7701 8.67607 23.6857 8.64368 23.6071C8.61129 23.5284 8.56365 23.4569 8.50349 23.3967C8.44333 23.3366 8.37186 23.2889 8.29319 23.2565C8.21452 23.2241 8.13022 23.2076 8.04514 23.2079C7.96005 23.2082 7.87588 23.2254 7.79747 23.2585C7.71906 23.2915 7.64797 23.3397 7.58829 23.4004L6.62987 24.3588C6.53976 24.4489 6.4784 24.5637 6.45354 24.6888C6.42868 24.8138 6.44145 24.9433 6.49022 25.0611C6.53899 25.1788 6.62158 25.2795 6.72755 25.3503C6.83351 25.4211 6.9581 25.459 7.08556 25.459Z" fill="#7140D9"/>
<path d="M4.44727 29.922L1.5834 32.7857C1.46415 32.9069 1.39763 33.0703 1.39832 33.2403C1.39901 33.4104 1.46686 33.5732 1.58709 33.6935C1.70732 33.8137 1.87019 33.8815 2.04022 33.8822C2.21025 33.8829 2.37367 33.8164 2.49487 33.6972L5.35853 30.8335C5.41918 30.7738 5.46741 30.7028 5.50045 30.6244C5.53349 30.5459 5.55068 30.4618 5.55103 30.3767C5.55137 30.2916 5.53487 30.2073 5.50247 30.1286C5.47007 30.05 5.42242 29.9785 5.36225 29.9183C5.30209 29.8582 5.23061 29.8105 5.15194 29.7781C5.07327 29.7457 4.98896 29.7292 4.90388 29.7295C4.81879 29.7299 4.73462 29.7471 4.65622 29.7801C4.57781 29.8132 4.50672 29.8614 4.44705 29.922H4.44727Z" fill="#7140D9"/>
<path d="M10.1897 25.0909C10.0688 24.97 9.90488 24.9021 9.73397 24.9021C9.56306 24.9021 9.39915 24.97 9.27829 25.0909L5.92339 28.4453C5.86274 28.505 5.81449 28.5761 5.78144 28.6545C5.7484 28.7329 5.7312 28.817 5.73084 28.9021C5.73048 28.9872 5.74698 29.0715 5.77937 29.1502C5.81176 29.2289 5.8594 29.3004 5.91956 29.3605C5.97972 29.4207 6.05119 29.4684 6.12986 29.5008C6.20853 29.5332 6.29283 29.5497 6.37791 29.5494C6.463 29.549 6.54717 29.5318 6.62558 29.4988C6.70399 29.4658 6.77508 29.4176 6.83476 29.3569L10.1897 26.0019C10.3104 25.881 10.3782 25.7172 10.3782 25.5464C10.3782 25.3756 10.3104 25.2117 10.1897 25.0909Z" fill="#7140D9"/>
<path d="M22.87 45.8934L22.3759 46.3869C22.255 46.5078 22.1871 46.6717 22.1871 46.8427C22.1871 47.0136 22.2551 47.1776 22.3759 47.2984C22.4968 47.4193 22.6608 47.4872 22.8317 47.4872C23.0027 47.4872 23.1666 47.4193 23.2875 47.2984L23.781 46.8042C23.9002 46.683 23.9667 46.5196 23.966 46.3496C23.9653 46.1795 23.8974 46.0167 23.7772 45.8965C23.6569 45.7762 23.494 45.7084 23.324 45.7077C23.154 45.7071 22.9906 45.7736 22.8694 45.8929L22.87 45.8934Z" fill="#7140D9"/>
<path d="M26.4752 42.2878L24.2699 44.4932C24.2087 44.5527 24.1599 44.6238 24.1264 44.7024C24.093 44.7809 24.0754 44.8653 24.0748 44.9507C24.0743 45.0361 24.0906 45.1207 24.123 45.1997C24.1554 45.2787 24.2032 45.3505 24.2636 45.4108C24.3239 45.4712 24.3957 45.519 24.4747 45.5514C24.5537 45.5838 24.6383 45.6002 24.7237 45.5996C24.8091 45.599 24.8935 45.5815 24.972 45.548C25.0506 45.5146 25.1217 45.4658 25.1812 45.4047L27.3866 43.1993C27.5048 43.0779 27.5704 42.9148 27.5692 42.7454C27.5681 42.576 27.5003 42.4138 27.3805 42.294C27.2607 42.1742 27.0986 42.1064 26.9291 42.1052C26.7597 42.104 26.5966 42.1696 26.4752 42.2878Z" fill="#7140D9"/>
<path d="M23.3469 49.7075C23.4677 49.8284 23.6317 49.8963 23.8026 49.8963C23.9735 49.8963 24.1375 49.8284 24.2583 49.7075L26.8509 47.1152C26.9121 47.0557 26.9608 46.9846 26.9943 46.906C27.0278 46.8275 27.0453 46.7431 27.0459 46.6577C27.0465 46.5724 27.0301 46.4877 26.9977 46.4087C26.9653 46.3297 26.9175 46.258 26.8571 46.1976C26.7968 46.1372 26.725 46.0894 26.646 46.057C26.567 46.0246 26.4824 46.0082 26.397 46.0088C26.3117 46.0094 26.2272 46.0269 26.1487 46.0604C26.0702 46.0938 25.999 46.1426 25.9395 46.2038L23.347 48.7962C23.2261 48.917 23.1582 49.0809 23.1582 49.2518C23.1582 49.4227 23.226 49.5866 23.3469 49.7075Z" fill="#7140D9"/>
<path d="M27.2069 45.8477C27.2667 45.9075 27.3378 45.955 27.416 45.9874C27.4942 46.0198 27.578 46.0365 27.6627 46.0365C27.7473 46.0365 27.8311 46.0198 27.9094 45.9874C27.9876 45.955 28.0586 45.9075 28.1185 45.8477L29.0768 44.8892C29.1976 44.7683 29.2655 44.6044 29.2655 44.4334C29.2655 44.2625 29.1976 44.0985 29.0767 43.9777C28.9558 43.8568 28.7918 43.7889 28.6209 43.7889C28.4499 43.7889 28.286 43.8569 28.1651 43.9778L27.2069 44.9361C27.147 44.9959 27.0995 45.067 27.0671 45.1452C27.0347 45.2234 27.0181 45.3072 27.0181 45.3919C27.0181 45.4765 27.0347 45.5603 27.0671 45.6385C27.0995 45.7168 27.147 45.7878 27.2069 45.8477Z" fill="#7140D9"/>
<path d="M25.024 50.499L22.1603 53.3626C22.0997 53.4222 22.0514 53.4933 22.0184 53.5717C21.9853 53.6501 21.9681 53.7343 21.9678 53.8194C21.9674 53.9045 21.9839 53.9888 22.0163 54.0675C22.0487 54.1461 22.0963 54.2176 22.1565 54.2778C22.2167 54.338 22.2881 54.3856 22.3668 54.418C22.4455 54.4504 22.5298 54.4669 22.6149 54.4666C22.6999 54.4663 22.7841 54.4491 22.8625 54.4161C22.9409 54.383 23.012 54.3348 23.0717 54.2742L25.9355 51.4105C25.9961 51.3508 26.0443 51.2798 26.0774 51.2013C26.1104 51.1229 26.1276 51.0388 26.128 50.9537C26.1283 50.8686 26.1118 50.7843 26.0794 50.7056C26.047 50.627 25.9993 50.5555 25.9392 50.4953C25.879 50.4351 25.8075 50.3875 25.7289 50.3551C25.6502 50.3227 25.5659 50.3062 25.4808 50.3065C25.3957 50.3069 25.3116 50.3241 25.2331 50.3571C25.1547 50.3902 25.0837 50.4384 25.024 50.499Z" fill="#7140D9"/>
<path d="M29.8553 45.6677L26.5002 49.0227C26.4396 49.0824 26.3914 49.1535 26.3583 49.2319C26.3253 49.3103 26.3081 49.3945 26.3077 49.4796C26.3074 49.5646 26.3239 49.6489 26.3563 49.7276C26.3887 49.8063 26.4364 49.8778 26.4965 49.9379C26.5567 49.9981 26.6282 50.0458 26.7068 50.0782C26.7855 50.1105 26.8698 50.1271 26.9549 50.1267C27.04 50.1264 27.1242 50.1092 27.2026 50.0761C27.281 50.0431 27.3521 49.9949 27.4117 49.9342L30.7666 46.5793C30.8273 46.5197 30.8755 46.4486 30.9086 46.3702C30.9416 46.2918 30.9588 46.2076 30.9592 46.1225C30.9595 46.0374 30.943 45.9531 30.9106 45.8744C30.8783 45.7958 30.8306 45.7243 30.7705 45.6641C30.7103 45.6039 30.6388 45.5563 30.5602 45.5239C30.4815 45.4915 30.3972 45.4749 30.3121 45.4753C30.227 45.4756 30.1428 45.4928 30.0644 45.5258C29.986 45.5589 29.9149 45.6071 29.8553 45.6677Z" fill="#7140D9"/>
<path d="M48.1064 37.8458C47.5779 37.6673 47.0978 37.3688 46.7039 36.9736C46.31 36.5785 46.013 36.0976 45.8361 35.5684C45.7934 35.44 45.7113 35.3283 45.6015 35.2492C45.4918 35.17 45.3599 35.1274 45.2245 35.1274C45.0892 35.1274 44.9573 35.17 44.8475 35.2492C44.7378 35.3283 44.6557 35.44 44.613 35.5684C44.4361 36.0976 44.139 36.5785 43.7452 36.9736C43.3513 37.3688 42.8712 37.6673 42.3426 37.8458C42.2145 37.8887 42.103 37.9708 42.024 38.0804C41.9451 38.1901 41.9026 38.3219 41.9026 38.457C41.9026 38.5922 41.9451 38.7239 42.024 38.8336C42.103 38.9433 42.2145 39.0254 42.3426 39.0683C42.8712 39.2468 43.3513 39.5453 43.7452 39.9404C44.139 40.3355 44.4361 40.8165 44.613 41.3456C44.6557 41.474 44.7378 41.5857 44.8475 41.6649C44.9573 41.744 45.0892 41.7866 45.2245 41.7866C45.3599 41.7866 45.4918 41.744 45.6015 41.6649C45.7113 41.5857 45.7934 41.474 45.8361 41.3456C46.013 40.8165 46.31 40.3355 46.7039 39.9404C47.0978 39.5453 47.5779 39.2468 48.1064 39.0683C48.2346 39.0254 48.3461 38.9433 48.425 38.8336C48.504 38.7239 48.5465 38.5922 48.5465 38.457C48.5465 38.3219 48.504 38.1901 48.425 38.0804C48.3461 37.9708 48.2346 37.8887 48.1064 37.8458ZM45.2245 39.7129C44.8861 39.222 44.4614 38.7965 43.9711 38.457C44.4614 38.1176 44.8861 37.6921 45.2245 37.2012C45.563 37.6921 45.9877 38.1176 46.4779 38.457C45.9877 38.7965 45.563 39.222 45.2245 39.7129Z" fill="#7140D9"/>
<path d="M2.38169 13.1796C2.91027 13.3581 3.39032 13.6566 3.78421 14.0517C4.17811 14.4468 4.47515 14.9278 4.65205 15.4569C4.69478 15.5853 4.77685 15.697 4.88661 15.7762C4.99638 15.8553 5.12827 15.8979 5.2636 15.8979C5.39893 15.8979 5.53082 15.8553 5.64059 15.7762C5.75035 15.697 5.83242 15.5853 5.87515 15.4569C6.05205 14.9278 6.34909 14.4468 6.74299 14.0517C7.13689 13.6566 7.61694 13.3581 8.14552 13.1796C8.27369 13.1367 8.38514 13.0546 8.4641 12.9449C8.54307 12.8353 8.58555 12.7035 8.58555 12.5684C8.58555 12.4332 8.54307 12.3015 8.4641 12.1918C8.38514 12.0821 8.27369 12 8.14552 11.9571C7.61694 11.7786 7.13689 11.4801 6.74299 11.085C6.34909 10.6899 6.05205 10.2089 5.87515 9.67979C5.83242 9.55138 5.75035 9.43969 5.64059 9.36054C5.53082 9.28138 5.39893 9.23878 5.2636 9.23878C5.12827 9.23878 4.99638 9.28138 4.88661 9.36054C4.77685 9.43969 4.69478 9.55138 4.65205 9.67979C4.47515 10.2089 4.17811 10.6899 3.78421 11.085C3.39032 11.4801 2.91027 11.7786 2.38169 11.9571C2.25352 12 2.14207 12.0821 2.0631 12.1918C1.98414 12.3015 1.94165 12.4332 1.94165 12.5684C1.94165 12.7035 1.98414 12.8353 2.0631 12.9449C2.14207 13.0546 2.25352 13.1367 2.38169 13.1796ZM5.2636 11.3125C5.60208 11.8034 6.02675 12.2289 6.517 12.5684C6.02675 12.9078 5.60208 13.3333 5.2636 13.8242C4.92512 13.3333 4.50046 12.9078 4.0102 12.5684C4.50046 12.2289 4.92512 11.8034 5.2636 11.3125Z" fill="#7140D9"/>
<path d="M13.6467 6.98242C14.2984 6.98242 14.8267 6.45338 14.8267 5.80078C14.8267 5.14818 14.2984 4.61914 13.6467 4.61914C12.995 4.61914 12.4667 5.14818 12.4667 5.80078C12.4667 6.45338 12.995 6.98242 13.6467 6.98242Z" fill="#7140D9"/>
<path d="M43.1877 48.9844C43.8394 48.9844 44.3678 48.4553 44.3678 47.8027C44.3678 47.1501 43.8394 46.6211 43.1877 46.6211C42.536 46.6211 42.0077 47.1501 42.0077 47.8027C42.0077 48.4553 42.536 48.9844 43.1877 48.9844Z" fill="#7140D9"/>
<path d="M36.1736 11.5981C35.399 11.5985 34.6365 11.79 33.9535 12.1554C33.2705 12.5208 32.6882 13.049 32.258 13.6932C31.8279 14.3373 31.5632 15.0776 31.4873 15.8485C31.4115 16.6194 31.5269 17.397 31.8234 18.1127C32.1198 18.8283 32.5881 19.4598 33.1868 19.9513C33.7855 20.4428 34.4961 20.7791 35.2558 20.9304C36.0155 21.0817 36.8007 21.0434 37.542 20.8189C38.2834 20.5943 38.9579 20.1905 39.5059 19.6431C40.165 18.984 40.6139 18.1443 40.7957 17.2301C40.9775 16.3159 40.8842 15.3684 40.5275 14.5072C40.1708 13.6461 39.5667 12.9101 38.7917 12.3923C38.0167 11.8745 37.1056 11.5981 36.1735 11.5981H36.1736ZM38.5945 18.7316C38.1157 19.2104 37.5056 19.5365 36.8415 19.6686C36.1774 19.8007 35.489 19.7329 34.8634 19.4738C34.2378 19.2147 33.7031 18.7759 33.3269 18.2129C32.9507 17.6498 32.7499 16.9879 32.7499 16.3108C32.7499 15.6336 32.9507 14.9717 33.3269 14.4087C33.7031 13.8457 34.2378 13.4068 34.8634 13.1477C35.489 12.8886 36.1774 12.8208 36.8415 12.9529C37.5056 13.085 38.1157 13.4111 38.5945 13.89C39.2356 14.5325 39.5956 15.4031 39.5956 16.3108C39.5956 17.2184 39.2356 18.089 38.5945 18.7316Z" fill="#7140D9"/>
</svg>
