<svg width="55" height="55" viewBox="0 0 55 55" fill="none" xmlns="http://www.w3.org/2000/svg">
<path d="M27.5 28.0264C29.8325 28.0264 32.1125 27.3347 34.0519 26.0389C35.9913 24.743 37.5028 22.9012 38.3954 20.7463C39.288 18.5914 39.5216 16.2202 39.0665 13.9326C38.6115 11.6449 37.4883 9.5436 35.839 7.89431C34.1897 6.24501 32.0884 5.12183 29.8007 4.66679C27.5131 4.21175 25.1419 4.4453 22.987 5.33789C20.8321 6.23048 18.9902 7.74203 17.6944 9.68139C16.3986 11.6208 15.7069 13.9008 15.7069 16.2333C15.7105 19.3599 16.9541 22.3575 19.165 24.5683C21.3758 26.7792 24.3734 28.0228 27.5 28.0264ZM27.5 5.72925C29.5775 5.72925 31.6084 6.3453 33.3357 7.4995C35.0631 8.6537 36.4095 10.2942 37.2045 12.2136C37.9995 14.1329 38.2075 16.2449 37.8022 18.2825C37.3969 20.3201 36.3965 22.1917 34.9275 23.6608C33.4585 25.1298 31.5868 26.1302 29.5492 26.5355C27.5117 26.9408 25.3997 26.7328 23.4803 25.9377C21.5609 25.1427 19.9204 23.7964 18.7662 22.069C17.612 20.3416 16.996 18.3108 16.996 16.2333C16.9991 13.4484 18.1068 10.7785 20.076 8.80927C22.0452 6.84006 24.7151 5.73238 27.5 5.72925Z" fill="#7140D9"/>
<path d="M23.0528 10.291C24.3337 9.32488 25.8956 8.80427 27.5 8.80859V7.51953C25.6165 7.51474 23.7831 8.12611 22.2793 9.26041C20.8077 10.3682 19.7207 11.9098 19.1715 13.668L20.4032 14.0481C20.8714 12.5493 21.7981 11.2352 23.0528 10.291Z" fill="#7140D9"/>
<path d="M18.8878 14.8961C18.8208 15.3345 18.7869 15.7773 18.7863 16.2208H20.0753C20.0773 15.842 20.106 15.4639 20.1613 15.0892L18.8878 14.8961Z" fill="#7140D9"/>
<path d="M25.459 31.266V33.623H23.9551C23.7802 33.6322 23.6155 33.7085 23.4955 33.836C23.3754 33.9635 23.3092 34.1324 23.3105 34.3075V53.2877C23.3107 53.372 23.3275 53.4554 23.36 53.5332C23.3925 53.611 23.4401 53.6816 23.5 53.7409C23.5599 53.8002 23.631 53.847 23.7091 53.8788C23.7872 53.9105 23.8708 53.9265 23.9551 53.9258H31.0449C31.1292 53.9265 31.2128 53.9105 31.2909 53.8788C31.369 53.847 31.4401 53.8002 31.5 53.7409C31.5599 53.6816 31.6075 53.611 31.64 53.5332C31.6725 53.4554 31.6893 53.372 31.6895 53.2877V34.3075C31.6908 34.1324 31.6246 33.9635 31.5045 33.836C31.3845 33.7085 31.2198 33.6322 31.0449 33.623H29.541V31.266C33.1794 30.7737 36.5159 28.9793 38.9324 26.2152C41.349 23.4511 42.6816 19.9048 42.6834 16.2333C42.6834 7.87102 35.8713 1.06778 27.5089 1.06778C19.1466 1.06778 12.3213 7.87102 12.3213 16.2333C12.3221 19.9043 13.6538 23.4505 16.0696 26.2147C18.4853 28.9788 21.8212 30.7735 25.459 31.266ZM30.4004 52.6367H24.5996V49.6289H30.4004V52.6367ZM30.4004 34.9121V48.3398H24.5996V34.9121H25.459V36.6781C25.459 37.034 25.7834 37.2754 26.1393 37.2754H28.8607C29.2166 37.2754 29.541 37.034 29.541 36.6781V34.9121H30.4004ZM26.748 35.9863V31.3815C27.0703 31.3922 27.2599 31.3988 27.5 31.3988C27.7401 31.3988 27.9297 31.3925 28.252 31.3815V35.9863H26.748ZM27.5 2.35684C30.2445 2.35684 32.9274 3.17068 35.2093 4.69544C37.4913 6.2202 39.2699 8.38741 40.3202 10.923C41.3704 13.4586 41.6452 16.2487 41.1098 18.9404C40.5744 21.6322 39.2528 24.1047 37.3121 26.0454C35.3715 27.986 32.8989 29.3077 30.2072 29.8431C27.5154 30.3785 24.7253 30.1037 22.1897 29.0534C19.6541 28.0032 17.4869 26.2246 15.9622 23.9426C14.4374 21.6606 13.6236 18.9778 13.6236 16.2333C13.6277 12.5543 15.091 9.02718 17.6925 6.42574C20.2939 3.8243 23.821 2.36099 27.5 2.35684Z" fill="#7140D9"/>
</svg>
